<mxfile host="app.diagrams.net" agent="Mozilla/5.0 (Macintosh; Intel Mac OS X 10_15_7) AppleWebKit/537.36 (KHTML, like Gecko) Chrome/136.0.0.0 Safari/537.36 Edg/136.0.0.0" version="27.0.9">
  <diagram name="第 1 页" id="uT5XYs6UictxqT_nQJGg">
    <mxGraphModel dx="429" dy="503" grid="1" gridSize="10" guides="1" tooltips="1" connect="1" arrows="1" fold="1" page="1" pageScale="1" pageWidth="827" pageHeight="1169" math="0" shadow="0">
      <root>
        <mxCell id="0" />
        <mxCell id="1" parent="0" />
        <mxCell id="X29Cv0jLeG4FGPxGaaAt-1" value="HOLO" style="shape=cylinder3;whiteSpace=wrap;html=1;boundedLbl=1;backgroundOutline=1;size=15;" vertex="1" parent="1">
          <mxGeometry x="140" y="390" width="52.5" height="70" as="geometry" />
        </mxCell>
        <mxCell id="X29Cv0jLeG4FGPxGaaAt-3" value="MYSQL" style="shape=cylinder3;whiteSpace=wrap;html=1;boundedLbl=1;backgroundOutline=1;size=15;" vertex="1" parent="1">
          <mxGeometry x="280" y="390" width="52.5" height="70" as="geometry" />
        </mxCell>
        <mxCell id="X29Cv0jLeG4FGPxGaaAt-9" style="edgeStyle=orthogonalEdgeStyle;rounded=0;orthogonalLoop=1;jettySize=auto;html=1;entryX=0;entryY=0.5;entryDx=0;entryDy=0;entryPerimeter=0;" edge="1" parent="1" source="X29Cv0jLeG4FGPxGaaAt-1" target="X29Cv0jLeG4FGPxGaaAt-3">
          <mxGeometry relative="1" as="geometry" />
        </mxCell>
        <mxCell id="X29Cv0jLeG4FGPxGaaAt-12" value="MQ" style="strokeWidth=2;html=1;shape=mxgraph.flowchart.sequential_data;whiteSpace=wrap;" vertex="1" parent="1">
          <mxGeometry x="136.25" y="530" width="60" height="60" as="geometry" />
        </mxCell>
        <mxCell id="X29Cv0jLeG4FGPxGaaAt-14" style="edgeStyle=orthogonalEdgeStyle;rounded=0;orthogonalLoop=1;jettySize=auto;html=1;exitX=0.5;exitY=1;exitDx=0;exitDy=0;exitPerimeter=0;entryX=0.5;entryY=0;entryDx=0;entryDy=0;entryPerimeter=0;" edge="1" parent="1" source="X29Cv0jLeG4FGPxGaaAt-1" target="X29Cv0jLeG4FGPxGaaAt-12">
          <mxGeometry relative="1" as="geometry" />
        </mxCell>
        <mxCell id="X29Cv0jLeG4FGPxGaaAt-15" style="edgeStyle=orthogonalEdgeStyle;rounded=0;orthogonalLoop=1;jettySize=auto;html=1;entryX=0;entryY=0.5;entryDx=0;entryDy=0;entryPerimeter=0;" edge="1" parent="1" source="X29Cv0jLeG4FGPxGaaAt-12" target="X29Cv0jLeG4FGPxGaaAt-3">
          <mxGeometry relative="1" as="geometry" />
        </mxCell>
        <mxCell id="X29Cv0jLeG4FGPxGaaAt-17" value="quickBI" style="rounded=0;whiteSpace=wrap;html=1;" vertex="1" parent="1">
          <mxGeometry x="129.25" y="180" width="74" height="40" as="geometry" />
        </mxCell>
        <mxCell id="X29Cv0jLeG4FGPxGaaAt-18" value="API-Gateway" style="rounded=0;whiteSpace=wrap;html=1;" vertex="1" parent="1">
          <mxGeometry x="136.25" y="260" width="74" height="40" as="geometry" />
        </mxCell>
      </root>
    </mxGraphModel>
  </diagram>
</mxfile>
